<?xml version="1.0" encoding="UTF-8" ?>
<svg
  xmlns="http://www.w3.org/2000/svg"
  xmlns:xlink="http://www.w3.org/1999/xlink"
  version="1.1"
  viewBox="-5 -5 130 130"
  stroke-linecap="butt"
  stroke-linejoin="bevel"
>
  <rect x="50" y="30" width="20" height="90"/>
  <path stroke-linejoin="round" d="
    M  20  40
    A  12  12   0 0 0  30  65
    A  12  12   0 0 0  50  70
    A  12  12   0 0 0  70  70
    A  12  12   0 0 0  90  65
    A  12  12   0 0 0 100  40
    A  12  12   0 0 0  90  15
    A  12  12   0 0 0  70  10
    A  12  12   0 0 0  50  10
    A  12  12   0 0 0  30  15
    A  12  12   0 0 0  20  40
    Z
  " />
</svg>